Coordinates
version=1
nRows=33
nColumns=34
inDegrees=yes

Units are S.I. units (second, meters, Newtons, ...)
If the header above contains a line with 'inDegrees', this indicates whether rotational values are in degrees (yes) or radians (no).

endheader
time	pelvis_tilt	pelvis_list	pelvis_rotation	pelvis_tx	pelvis_ty	pelvis_tz	hip_flexion_r	hip_adduction_r	hip_rotation_r	knee_angle_r	ankle_angle_r	subtalar_angle_r	mtp_angle_r	hip_flexion_l	hip_adduction_l	hip_rotation_l	knee_angle_l	ankle_angle_l	subtalar_angle_l	mtp_angle_l	lumbar_extension	lumbar_bending	lumbar_rotation	arm_flex_r	arm_add_r	arm_rot_r	elbow_flex_r	pro_sup_r	arm_flex_l	arm_add_l	arm_rot_l	elbow_flex_l	pro_sup_l
0.000000	1.398543	-2.201895	0.602149	0.866061	0.925999	-0.077724	2.225324	-2.806073	-7.841166	4.003502	1.888161	-6.910191	0.000000	1.742222	-7.499286	-8.491404	2.752570	5.608694	-4.435251	0.000000	-5.406122	2.637226	-5.604483	13.281140	-11.458974	18.776707	30.861979	85.884500	13.843828	-8.317943	8.843202	34.297350	80.976226
0.016667	0.447893	-1.375586	0.406694	0.867835	0.924646	-0.077525	2.844408	-3.432015	-8.345478	3.031240	2.878819	-5.549295	0.000000	2.270234	-6.444285	-10.381978	2.145234	5.871795	-3.166045	0.000000	-3.612646	1.768366	-4.852829	13.295478	-11.395477	17.811791	30.758746	85.793514	14.554042	-8.064550	7.169420	33.003187	80.529080
0.033333	-0.358967	-0.655490	0.263202	0.869129	0.923511	-0.077363	3.334142	-3.983020	-8.800897	2.129460	3.672477	-4.376004	0.000000	2.704407	-5.523950	-12.003944	1.557407	6.011925	-2.055317	0.000000	-2.111900	1.020667	-4.136064	13.499568	-11.382040	17.015608	30.756697	85.729945	15.326540	-7.919444	5.798929	32.050214	80.146124
0.050000	-0.943621	-0.113900	0.208721	0.869710	0.922750	-0.077246	3.633159	-4.401593	-9.182541	1.357908	4.173349	-3.494380	0.000000	3.007300	-4.826487	-13.201157	1.019455	5.969599	-1.190171	0.000000	-1.059949	0.474216	-3.487615	13.997149	-11.445402	16.478976	30.923843	85.703309	16.202394	-7.928209	4.871015	31.608078	79.857867
0.066667	-1.303138	0.231065	0.251771	0.869640	0.922398	-0.077150	3.754562	-4.665395	-9.501337	0.754189	4.393587	-2.905378	0.000000	3.198309	-4.372667	-13.968053	0.571181	5.751486	-0.568634	0.000000	-0.457183	0.142893	-2.927791	14.780968	-11.582629	16.204632	31.290564	85.706676	17.185954	-8.069559	4.345312	31.662318	79.654624
0.083333	-1.477425	0.408415	0.374770	0.869124	0.922373	-0.077041	3.748677	-4.790461	-9.793457	0.329931	4.403183	-2.541288	0.000000	3.316120	-4.128420	-14.403839	0.244638	5.405287	-0.129269	0.000000	-0.217110	-0.014655	-2.454914	15.779081	-11.776048	16.148902	31.866861	85.733979	18.251360	-8.291636	4.087378	32.121125	79.487405
0.100000	-1.517268	0.468041	0.549919	0.868376	0.922534	-0.076931	3.667500	-4.814967	-10.095240	0.072219	4.286119	-2.315114	0.000000	3.389486	-4.034637	-14.634496	0.045439	5.003407	0.204372	0.000000	-0.231555	-0.058632	-2.054799	16.906568	-12.010222	16.260383	32.650105	85.790098	19.352952	-8.543320	3.950915	32.897062	79.280206
0.116667	-1.468864	0.457326	0.754767	0.867596	0.922762	-0.076872	3.546618	-4.779028	-10.427460	-0.052957	4.108457	-2.156387	0.000000	3.431905	-4.032749	-14.761289	-0.049026	4.616588	0.494644	0.000000	-0.400237	-0.039255	-1.716285	18.092451	-12.278048	16.497941	33.621206	85.890965	20.434074	-8.787528	3.819842	33.931020	78.945658
0.133333	-1.372025	0.411084	0.978363	0.866968	0.923043	-0.076930	3.406817	-4.714345	-10.791669	-0.090341	3.903028	-2.026653	0.000000	3.452037	-4.077425	-14.846981	-0.074773	4.283260	0.779765	0.000000	-0.634825	0.011526	-1.436863	19.288967	-12.573047	16.827615	34.726680	86.056857	21.441909	-9.002030	3.624464	35.173169	78.406759
0.150000	-1.267120	0.350983	1.218933	0.866635	0.923451	-0.077135	3.269291	-4.642030	-11.170655	-0.081397	3.677635	-1.923316	0.000000	3.468174	-4.139212	-14.917997	-0.065218	4.005731	1.070235	0.000000	-0.850916	0.076699	-1.219656	20.472687	-12.873230	17.205828	35.858037	86.299579	22.345696	-9.175395	3.346114	36.541420	77.631561
0.166667	-1.189887	0.288207	1.478910	0.866657	0.924041	-0.077440	3.155389	-4.572630	-11.537384	-0.055743	3.435443	-1.866323	0.000000	3.503411	-4.202811	-14.974845	-0.043675	3.769858	1.356637	0.000000	-0.978052	0.147234	-1.063611	21.632444	-13.143048	17.575112	36.880999	86.606822	23.149684	-9.302135	3.013510	37.911029	76.672765
0.183333	-1.153522	0.227069	1.760364	0.866978	0.924762	-0.077748	3.069176	-4.507989	-11.870584	-0.030112	3.190236	-1.871279	0.000000	3.564944	-4.263353	-15.009144	-0.022997	3.564154	1.629080	0.000000	-0.987060	0.215480	-0.951994	22.752874	-13.357344	17.880354	37.708257	86.934735	23.894235	-9.378865	2.689383	39.151486	75.681005
0.200000	-1.147466	0.169275	2.061122	0.867432	0.925487	-0.077956	2.996832	-4.445993	-12.162072	-0.011407	2.965347	-1.935069	0.000000	3.641336	-4.320950	-15.016819	-0.008256	3.386331	1.889391	0.000000	-0.893368	0.272436	-0.856121	23.815916	-13.513954	18.089338	38.334542	87.227925	24.635453	-9.405486	2.441726	40.175077	74.839925
0.216667	-1.155167	0.117245	2.371556	0.867851	0.926087	-0.077993	2.924601	-4.385599	-12.412217	-0.000607	2.783140	-2.038881	0.000000	3.718067	-4.375874	-15.004789	0.000056	3.239238	2.148336	0.000000	-0.731167	0.309229	-0.753184	24.814029	-13.624837	18.205521	38.814467	87.456253	25.411606	-9.390354	2.310176	40.967394	74.255132
0.233333	-1.167005	0.074419	2.673018	0.868197	0.926438	-0.077826	2.848924	-4.328199	-12.622598	0.004015	2.661746	-2.154104	0.000000	3.785550	-4.427442	-14.992581	0.003473	3.126061	2.417293	0.000000	-0.528399	0.319980	-0.634958	25.751922	-13.704729	18.262481	39.224906	87.627413	26.228424	-9.351745	2.298578	41.575550	73.918247
0.250000	-1.178449	0.043000	2.942001	0.868592	0.926473	-0.077472	2.769595	-4.275306	-12.795972	0.004839	2.613922	-2.248740	0.000000	3.833426	-4.476038	-15.006076	0.003946	3.048464	2.708514	0.000000	-0.300250	0.303731	-0.502168	26.634204	-13.769729	18.306282	39.637723	87.772499	27.068977	-9.312534	2.397516	42.068332	73.758461
0.266667	-1.182123	0.022664	3.158137	0.869213	0.926316	-0.077003	2.678703	-4.226934	-12.942300	0.003874	2.639383	-2.295186	0.000000	3.843490	-4.523700	-15.067822	0.003077	3.006328	3.041179	0.000000	-0.057074	0.264668	-0.357173	27.453116	-13.840499	18.382807	40.107264	87.930823	27.904175	-9.292391	2.606866	42.507651	73.695920
0.283333	-1.167528	0.012158	3.308064	0.870135	0.926220	-0.076508	2.563202	-4.183057	-13.078817	0.002430	2.721844	-2.275498	0.000000	3.794738	-4.571151	-15.191165	0.001888	2.998883	3.432993	0.000000	0.190293	0.210324	-0.200695	28.190501	-13.936595	18.527218	40.663011	88.136837	28.698976	-9.302423	2.935987	42.934498	73.667461
0.300000	-1.131137	0.011010	3.385947	0.871259	0.926311	-0.076045	2.421036	-4.145298	-13.222169	0.001178	2.835082	-2.186962	0.000000	3.680566	-4.615247	-15.373889	0.000887	3.022173	3.873616	0.000000	0.436822	0.148909	-0.033658	28.835531	-14.060487	18.746879	41.295562	88.401908	29.424247	-9.341595	3.379549	43.359574	73.637506
0.316667	-1.085062	0.019109	3.394951	0.872379	0.926480	-0.075637	2.272200	-4.116507	-13.381621	0.000344	2.951531	-2.045824	0.000000	3.521832	-4.650060	-15.592080	0.000235	3.062704	4.307505	0.000000	0.690881	0.087641	0.137740	29.400392	-14.188048	19.010924	41.948692	88.702836	30.070023	-9.395158	3.897168	43.763867	73.599004
0.333333	-1.050571	0.035860	3.347413	0.873341	0.926582	-0.075299	2.148536	-4.099697	-13.559752	-0.000094	3.053010	-1.873531	0.000000	3.357617	-4.669934	-15.811524	-0.000098	3.100373	4.661079	0.000000	0.966729	0.031921	0.302138	29.912071	-14.286511	19.273126	42.550598	89.001841	30.646358	-9.444018	4.442607	44.118662	73.563501
0.350000	-1.040805	0.060276	3.262141	0.874118	0.926610	-0.075057	2.069820	-4.097505	-13.756908	-0.000249	3.139167	-1.672842	0.000000	3.219586	-4.671759	-16.011570	-0.000209	3.121744	4.894803	0.000000	1.268106	-0.015317	0.449383	30.385067	-14.347008	19.513285	43.066926	89.284524	31.168296	-9.481623	5.020075	44.412476	73.545820
0.366667	-1.053333	0.091144	3.160290	0.874763	0.926670	-0.074923	2.032891	-4.111367	-13.971845	-0.000246	3.223020	-1.426731	0.000000	3.118158	-4.655636	-16.191943	-0.000198	3.125916	5.019257	0.000000	1.583812	-0.053627	0.574173	30.807976	-14.388972	19.745933	43.513367	89.567603	31.639637	-9.516591	5.685324	44.657434	73.555009
0.383333	-1.077211	0.126626	3.060575	0.875301	0.926848	-0.074858	2.021891	-4.139920	-14.197495	-0.000178	3.314224	-1.128129	0.000000	3.049223	-4.624690	-16.359555	-0.000140	3.118886	5.069362	0.000000	1.894134	-0.083945	0.673444	31.158735	-14.430415	19.988129	43.921731	89.867808	32.050011	-9.555592	6.474078	44.875600	73.592599
0.400000	-1.101014	0.163719	2.975433	0.875682	0.927122	-0.074797	2.022050	-4.177987	-14.416946	-0.000102	3.405263	-0.807746	0.000000	3.004808	-4.584741	-16.515854	-0.000079	3.107715	5.077869	0.000000	2.176641	-0.106827	0.741267	31.424032	-14.462947	20.227487	44.306733	90.171510	32.380456	-9.588593	7.336110	45.086997	73.653472
0.416667	-1.117111	0.198527	2.909689	0.875839	0.927386	-0.074686	2.026308	-4.217913	-14.610394	-0.000043	3.476664	-0.518867	0.000000	2.978999	-4.543299	-16.656843	-0.000032	3.097755	5.067258	0.000000	2.410664	-0.122018	0.769095	31.600785	-14.460603	20.428228	44.668821	90.444478	32.610793	-9.599367	8.171557	45.311387	73.731620
0.433333	-1.124235	0.227507	2.861546	0.875781	0.927567	-0.074512	2.035886	-4.252578	-14.770477	-0.000007	3.515444	-0.292254	0.000000	2.970519	-4.507601	-16.781239	-0.000004	3.090889	5.053398	0.000000	2.581447	-0.129492	0.752832	31.686669	-14.408615	20.564845	45.020027	90.669434	32.728211	-9.590929	8.935859	45.575704	73.828003
0.450000	-1.125752	0.248651	2.826009	0.875613	0.927681	-0.074284	2.054655	-4.277568	-14.904990	0.000010	3.523550	-0.120071	0.000000	2.980113	-4.482738	-16.893479	0.000009	3.085319	5.048208	0.000000	2.683565	-0.129852	0.696526	31.675276	-14.315842	20.638461	45.386791	90.858884	32.730572	-9.589361	9.667654	45.907136	73.949446
0.466667	-1.123949	0.262235	2.799144	0.875481	0.927765	-0.074033	2.080813	-4.292120	-15.023642	0.000014	3.511727	0.020090	0.000000	3.004456	-4.470378	-16.999591	0.000011	3.077412	5.055922	0.000000	2.722387	-0.124367	0.610102	31.563065	-14.202376	20.667398	45.778615	91.031987	32.624860	-9.614533	10.410200	46.305681	74.096199
0.483333	-1.116267	0.270775	2.779499	0.875496	0.927780	-0.073799	2.104164	-4.299159	-15.126767	0.000012	3.492101	0.139774	0.000000	3.033197	-4.468628	-17.103181	0.000010	3.064613	5.069636	0.000000	2.711721	-0.115180	0.506938	31.360815	-14.084269	20.675063	46.160178	91.190756	32.426999	-9.650824	11.134804	46.720914	74.251158
0.500000	-1.097775	0.277390	2.766774	0.875681	0.927639	-0.073616	2.112117	-4.303404	-15.208871	0.000008	3.474870	0.237524	0.000000	3.052696	-4.473853	-17.205079	0.000006	3.047860	5.077298	0.000000	2.669166	-0.103899	0.400911	31.092681	-13.970521	20.681034	46.468880	91.322114	32.158733	-9.658957	11.760337	47.073331	74.388721
0.516667	-1.067241	0.283806	2.760674	0.876011	0.927311	-0.073490	2.098361	-4.308411	-15.271141	0.000004	3.467155	0.312883	0.000000	3.053340	-4.483081	-17.305886	0.000003	3.032540	5.073941	0.000000	2.611384	-0.089693	0.302231	30.782653	-13.867819	20.693992	46.663507	91.417955	31.840587	-9.617070	12.239835	47.306612	74.497884
0.533333	-1.029031	0.290245	2.760455	0.876480	0.926882	-0.073398	2.064675	-4.315356	-15.326247	0.000001	3.472979	0.375073	0.000000	3.032533	-4.494612	-17.408145	0.000001	3.027304	5.067568	0.000000	2.551049	-0.070315	0.215771	30.444006	-13.781912	20.711075	46.743508	91.485738	31.487868	-9.538232	12.601648	47.406073	74.593231
